<mxfile host="app.diagrams.net" modified="2023-07-16T23:20:25.513Z" agent="Mozilla/5.0 (Windows NT 10.0; Win64; x64) AppleWebKit/537.36 (KHTML, like Gecko) Chrome/114.0.0.0 Safari/537.36" version="21.6.2" etag="g8NRsgvyRUjC4r0hP_T7" type="github">
  <diagram name="PÃ¡gina-1" id="S82_A_cnS6OmkO1JdJ2R">
    <mxGraphModel>
      <root>
        <mxCell id="0" />
        <mxCell id="1" parent="0" />
      </root>
    </mxGraphModel>
  </diagram>
</mxfile>
